<svg width="288" height="40" viewBox="0 0 288 40" fill="none" xmlns="http://www.w3.org/2000/svg">
<path d="M66.1033 19.675L64.3876 17.0875C65.7845 15.9344 66.5439 14.0219 66.5439 11.6406C66.5439 7.3375 64.0314 4.6375 60.0283 4.6375C56.0158 4.6375 53.5033 7.3375 53.5033 11.6406C53.5033 15.9812 56.0158 18.6344 60.0283 18.6344C60.8814 18.6344 61.6689 18.5125 62.3908 18.2594L63.3564 19.675H66.1033ZM60.0283 16.2906C57.8064 16.2906 56.3908 14.4719 56.3908 11.6406C56.3908 8.8 57.8064 6.97187 60.0283 6.97187C62.2408 6.97187 63.6564 8.8 63.6564 11.6406C63.6564 12.9438 63.3001 14.0219 62.6626 14.7531L62.072 13.9469H59.5126L60.9939 16.1594C60.6939 16.2438 60.3751 16.2906 60.0283 16.2906Z" fill="#333333"/>
<path d="M77.6439 8.07812H74.9064V13.9563C74.9064 15.3531 74.1095 16.2719 72.8345 16.2719C71.5689 16.2719 70.8751 15.5219 70.8751 14.125V8.07812H68.1376V14.6969C68.1376 17.0969 69.6095 18.55 71.8408 18.55C73.4064 18.55 74.4189 17.8281 74.9439 16.5344H75.0001V18.4H77.6439V8.07812Z" fill="#333333"/>
<path d="M83.4564 16.525C82.4626 16.525 81.8158 16.0469 81.8158 15.2875C81.8158 14.5281 82.4251 14.0781 83.5689 14.0031L85.7345 13.8531V14.6125C85.7345 15.7375 84.722 16.525 83.4564 16.525ZM82.5658 18.5219C83.8876 18.5219 85.1626 17.8844 85.7251 16.8063H85.7814V18.4H88.4251V11.3219C88.4251 9.25938 86.6908 7.9 84.0376 7.9C81.4595 7.9 79.6783 9.25938 79.6033 11.2281H82.1064C82.2376 10.4781 82.9314 9.95312 83.9251 9.95312C85.0501 9.95312 85.7345 10.4969 85.7345 11.4906V12.175L83.1564 12.3344C80.522 12.4938 79.0876 13.5531 79.0876 15.4281C79.0876 17.275 80.5783 18.5219 82.5658 18.5219Z" fill="#333333"/>
<path d="M90.272 18.4H93.0095V12.5125C93.0095 11.1438 93.797 10.2063 95.1095 10.2063C96.4033 10.2063 97.0408 10.9844 97.0408 12.3531V18.4H99.7783V11.7812C99.7783 9.37188 98.4845 7.92812 96.197 7.92812C94.6126 7.92812 93.5626 8.62188 92.972 9.925H92.9158V8.07812H90.272V18.4Z" fill="#333333"/>
<path d="M102.328 5.78125V8.07812H100.931V10.15H102.328V15.6156C102.328 17.6313 103.266 18.4375 105.656 18.4375C106.21 18.4375 106.697 18.3813 106.978 18.325V16.3C106.81 16.3281 106.538 16.3469 106.294 16.3469C105.46 16.3469 105.066 15.9625 105.066 15.1656V10.15H106.978V8.07812H105.066V5.78125H102.328Z" fill="#333333"/>
<path d="M113.11 18.5781C116.241 18.5781 118.2 16.5813 118.2 13.2344C118.2 9.925 116.222 7.9 113.11 7.9C110.006 7.9 108.019 9.93438 108.019 13.2344C108.019 16.5719 109.978 18.5781 113.11 18.5781ZM113.11 16.4688C111.666 16.4688 110.794 15.2875 110.794 13.2344C110.794 11.2094 111.666 10 113.11 10C114.544 10 115.416 11.2 115.416 13.2344C115.416 15.2875 114.553 16.4688 113.11 16.4688Z" fill="#333333"/>
<path d="M119.672 18.4H122.41V12.625C122.41 11.1813 123.225 10.3187 124.613 10.3187C125.016 10.3187 125.391 10.3844 125.625 10.4781V8.05938C125.428 7.99375 125.147 7.95625 124.828 7.95625C123.61 7.95625 122.719 8.65 122.372 9.925H122.316V8.07812H119.672V18.4Z" fill="#333333"/>
<path d="M126.844 18.4H129.581V8.07812H126.844V18.4ZM128.213 6.95312C129.028 6.95312 129.694 6.33438 129.694 5.51875C129.694 4.70312 129.028 4.09375 128.213 4.09375C127.406 4.09375 126.741 4.70312 126.741 5.51875C126.741 6.33438 127.406 6.95312 128.213 6.95312Z" fill="#333333"/>
<path d="M135.806 4.87188V18.4H141.019C145.078 18.4 147.469 15.8781 147.469 11.5844C147.469 7.29063 145.078 4.87188 141.019 4.87188H135.806ZM138.638 7.20625H140.681C143.175 7.20625 144.581 8.7625 144.581 11.5938C144.581 14.5188 143.213 16.0563 140.681 16.0563H138.638V7.20625Z" fill="#333333"/>
<path d="M149.138 18.4H151.875V8.07812H149.138V18.4ZM150.506 6.95312C151.322 6.95312 151.988 6.33438 151.988 5.51875C151.988 4.70312 151.322 4.09375 150.506 4.09375C149.7 4.09375 149.035 4.70312 149.035 5.51875C149.035 6.33438 149.7 6.95312 150.506 6.95312Z" fill="#333333"/>
<path d="M153.6 11.1156C153.6 12.625 154.603 13.6281 156.544 14.0688L158.447 14.5C159.385 14.725 159.741 15.0063 159.741 15.5406C159.741 16.2156 159.075 16.6375 157.988 16.6375C156.853 16.6375 156.15 16.15 156.019 15.2781H153.347C153.488 17.2656 155.194 18.5781 157.913 18.5781C160.613 18.5781 162.46 17.2563 162.46 15.25C162.46 13.7125 161.635 12.9156 159.563 12.4469L157.622 12.025C156.694 11.8094 156.244 11.4625 156.244 10.9469C156.244 10.2812 156.9 9.84063 157.885 9.84063C158.935 9.84063 159.619 10.3563 159.675 11.1719H162.206C162.169 9.20312 160.472 7.9 157.922 7.9C155.306 7.9 153.6 9.175 153.6 11.1156Z" fill="#333333"/>
<path d="M173.213 11.8844C173.081 9.5875 171.31 7.9 168.535 7.9C165.469 7.9 163.5 9.9625 163.5 13.2344C163.5 16.5531 165.469 18.5781 168.553 18.5781C171.263 18.5781 173.063 17.05 173.222 14.65H170.672C170.494 15.7844 169.735 16.4125 168.581 16.4125C167.166 16.4125 166.275 15.25 166.275 13.2344C166.275 11.2563 167.166 10.0563 168.572 10.0563C169.763 10.0563 170.513 10.8156 170.663 11.8844H173.213Z" fill="#333333"/>
<path d="M179.297 18.5781C182.428 18.5781 184.388 16.5813 184.388 13.2344C184.388 9.925 182.41 7.9 179.297 7.9C176.194 7.9 174.206 9.93438 174.206 13.2344C174.206 16.5719 176.166 18.5781 179.297 18.5781ZM179.297 16.4688C177.853 16.4688 176.981 15.2875 176.981 13.2344C176.981 11.2094 177.853 10 179.297 10C180.731 10 181.603 11.2 181.603 13.2344C181.603 15.2875 180.741 16.4688 179.297 16.4688Z" fill="#333333"/>
<path d="M194.981 8.07812H192.122L189.938 15.9531H189.881L187.688 8.07812H184.763L188.344 18.4H191.419L194.981 8.07812Z" fill="#333333"/>
<path d="M200.306 9.94375C201.572 9.94375 202.453 10.825 202.5 12.175H198.047C198.141 10.8531 199.06 9.94375 200.306 9.94375ZM202.538 15.25C202.275 16.0469 201.46 16.5344 200.428 16.5344C198.985 16.5344 198.019 15.5312 198.019 14.0406V13.8719H205.144V13.0281C205.144 9.8875 203.25 7.9 200.278 7.9C197.25 7.9 195.319 10 195.319 13.2812C195.319 16.5625 197.241 18.5781 200.381 18.5781C202.894 18.5781 204.76 17.2469 205.06 15.25H202.538Z" fill="#333333"/>
<path d="M206.616 18.4H209.353V12.625C209.353 11.1813 210.169 10.3187 211.556 10.3187C211.96 10.3187 212.335 10.3844 212.569 10.4781V8.05938C212.372 7.99375 212.091 7.95625 211.772 7.95625C210.553 7.95625 209.663 8.65 209.316 9.925H209.26V8.07812H206.616V18.4Z" fill="#333333"/>
<path d="M215.053 22.1688C217.631 22.1688 218.897 21.2406 219.778 18.6062L223.35 8.07812H220.463L218.222 16.1781H218.166L215.935 8.07812H212.935L216.553 18.4656L216.46 18.8594C216.244 19.6844 215.653 20.0406 214.631 20.0406C214.519 20.0406 214.106 20.0312 214.013 20.0125V22.1313C214.116 22.15 214.95 22.1688 215.053 22.1688Z" fill="#333333"/>
<path d="M237.675 16.0563H231.544V12.6438H237.328V10.4688H231.544V7.20625H237.675V4.87188H228.713V18.4H237.675V16.0563Z" fill="#333333"/>
<path d="M239.522 18.4H242.26V12.5125C242.26 11.1438 243.047 10.2063 244.36 10.2063C245.653 10.2063 246.291 10.9844 246.291 12.3531V18.4H249.028V11.7812C249.028 9.37188 247.735 7.92812 245.447 7.92812C243.863 7.92812 242.813 8.62188 242.222 9.925H242.166V8.07812H239.522V18.4Z" fill="#333333"/>
<path d="M255.581 16.2156C254.156 16.2156 253.266 15.0906 253.266 13.2156C253.266 11.35 254.166 10.1688 255.581 10.1688C257.006 10.1688 257.925 11.3688 257.925 13.225C257.925 15.0719 257.006 16.2156 255.581 16.2156ZM255.535 22.2906C258.61 22.2906 260.653 20.7156 260.653 18.25V8.07812H257.953V9.84063H257.906C257.363 8.69688 256.191 7.95625 254.71 7.95625C252.094 7.95625 250.463 9.97188 250.463 13.2063C250.463 16.3844 252.15 18.3344 254.663 18.3344C256.153 18.3344 257.363 17.6313 257.86 16.525H257.916V18.325C257.916 19.5531 257.091 20.3687 255.619 20.3687C254.531 20.3687 253.706 19.8719 253.481 19.1406H250.791C251.006 20.9781 252.853 22.2906 255.535 22.2906Z" fill="#333333"/>
<path d="M262.556 18.4H265.294V8.07812H262.556V18.4ZM263.925 6.95312C264.741 6.95312 265.406 6.33438 265.406 5.51875C265.406 4.70312 264.741 4.09375 263.925 4.09375C263.119 4.09375 262.453 4.70312 262.453 5.51875C262.453 6.33438 263.119 6.95312 263.925 6.95312Z" fill="#333333"/>
<path d="M267.197 18.4H269.935V12.5125C269.935 11.1438 270.722 10.2063 272.035 10.2063C273.328 10.2063 273.966 10.9844 273.966 12.3531V18.4H276.703V11.7812C276.703 9.37188 275.41 7.92812 273.122 7.92812C271.538 7.92812 270.488 8.62188 269.897 9.925H269.841V8.07812H267.197V18.4Z" fill="#333333"/>
<path d="M283.125 9.94375C284.391 9.94375 285.272 10.825 285.319 12.175H280.866C280.96 10.8531 281.878 9.94375 283.125 9.94375ZM285.356 15.25C285.094 16.0469 284.278 16.5344 283.247 16.5344C281.803 16.5344 280.838 15.5312 280.838 14.0406V13.8719H287.963V13.0281C287.963 9.8875 286.069 7.9 283.097 7.9C280.069 7.9 278.138 10 278.138 13.2812C278.138 16.5625 280.06 18.5781 283.2 18.5781C285.713 18.5781 287.578 17.2469 287.878 15.25H285.356Z" fill="#333333"/>
<path d="M58.7658 35.2H55.2638V28.918H58.7658V29.5668H55.9943V31.5906H58.5982V32.2352H55.9943V34.5469H58.7658V35.2Z" fill="#333333"/>
<path d="M66.4551 35.2H65.6258L63.9371 32.4371L62.2184 35.2H61.4449L63.5332 31.9172L61.5867 28.918H62.3946L63.9543 31.4059L65.527 28.918H66.3047L64.3582 31.8914L66.4551 35.2Z" fill="#333333"/>
<path d="M73.4483 30.7484C73.4483 31.3844 73.2306 31.8742 72.7952 32.218C72.3627 32.5589 71.7425 32.7293 70.9347 32.7293H70.1956V35.2H69.4651V28.918H71.0937C72.6635 28.918 73.4483 29.5281 73.4483 30.7484ZM70.1956 32.102H70.853C71.5004 32.102 71.9688 31.9974 72.2581 31.7883C72.5474 31.5792 72.6921 31.244 72.6921 30.7828C72.6921 30.3674 72.556 30.0581 72.2839 29.8547C72.0118 29.6513 71.5878 29.5496 71.012 29.5496H70.1956V32.102Z" fill="#333333"/>
<path d="M76.8795 35.2V28.918H77.61V34.5383H80.3814V35.2H76.8795Z" fill="#333333"/>
<path d="M89.0161 32.0504C89.0161 33.0559 88.7612 33.8465 88.2513 34.4223C87.7442 34.998 87.0381 35.2859 86.1329 35.2859C85.2076 35.2859 84.4929 35.0038 83.9888 34.4395C83.4875 33.8723 83.2368 33.073 83.2368 32.0418C83.2368 31.0191 83.4889 30.2271 83.9931 29.6656C84.4972 29.1013 85.2134 28.8191 86.1415 28.8191C87.0438 28.8191 87.7485 29.1056 88.2556 29.6785C88.7626 30.2514 89.0161 31.0421 89.0161 32.0504ZM84.0102 32.0504C84.0102 32.9012 84.1907 33.5471 84.5517 33.9883C84.9155 34.4266 85.4425 34.6457 86.1329 34.6457C86.829 34.6457 87.3546 34.4266 87.7099 33.9883C88.0651 33.55 88.2427 32.904 88.2427 32.0504C88.2427 31.2053 88.0651 30.5651 87.7099 30.1297C87.3575 29.6914 86.8347 29.4723 86.1415 29.4723C85.4454 29.4723 84.9155 29.6928 84.5517 30.134C84.1907 30.5723 84.0102 31.2111 84.0102 32.0504Z" fill="#333333"/>
<path d="M93.2636 32.5875V35.2H92.5332V28.918H94.2562C95.0268 28.918 95.5954 29.0655 95.9621 29.3605C96.3316 29.6556 96.5164 30.0996 96.5164 30.6926C96.5164 31.5233 96.0953 32.0848 95.2531 32.377L96.959 35.2H96.0953L94.5742 32.5875H93.2636ZM93.2636 31.9602H94.2648C94.7804 31.9602 95.1586 31.8585 95.3992 31.6551C95.6398 31.4488 95.7601 31.1409 95.7601 30.7313C95.7601 30.3159 95.637 30.0165 95.3906 29.8332C95.1471 29.6499 94.7547 29.5582 94.2133 29.5582H93.2636V31.9602Z" fill="#333333"/>
<path d="M103.587 35.2H100.085V28.918H103.587V29.5668H100.815V31.5906H103.419V32.2352H100.815V34.5469H103.587V35.2Z" fill="#333333"/>
<path d="M111.493 28.918H113.268C114.102 28.918 114.705 29.0426 115.077 29.2918C115.449 29.541 115.636 29.9349 115.636 30.4734C115.636 30.8458 115.531 31.1538 115.322 31.3973C115.116 31.6379 114.813 31.794 114.415 31.8656V31.9086C115.369 32.0719 115.846 32.5732 115.846 33.4125C115.846 33.974 115.656 34.4122 115.275 34.7273C114.897 35.0424 114.367 35.2 113.685 35.2H111.493V28.918ZM112.224 31.6078H113.427C113.943 31.6078 114.314 31.5276 114.54 31.3672C114.766 31.2039 114.879 30.9303 114.879 30.5465C114.879 30.1941 114.753 29.9406 114.501 29.7859C114.249 29.6284 113.848 29.5496 113.298 29.5496H112.224V31.6078ZM112.224 32.2266V34.577H113.534C114.041 34.577 114.422 34.4796 114.677 34.2848C114.935 34.0871 115.064 33.7792 115.064 33.3609C115.064 32.9714 114.932 32.6849 114.669 32.5016C114.408 32.3182 114.01 32.2266 113.474 32.2266H112.224Z" fill="#333333"/>
<path d="M119.312 35.2V28.918H120.042V35.2H119.312Z" fill="#333333"/>
<path d="M129.334 32.0504C129.334 33.0559 129.079 33.8465 128.569 34.4223C128.062 34.998 127.356 35.2859 126.451 35.2859C125.526 35.2859 124.811 35.0038 124.307 34.4395C123.806 33.8723 123.555 33.073 123.555 32.0418C123.555 31.0191 123.807 30.2271 124.311 29.6656C124.815 29.1013 125.531 28.8191 126.46 28.8191C127.362 28.8191 128.067 29.1056 128.574 29.6785C129.081 30.2514 129.334 31.0421 129.334 32.0504ZM124.328 32.0504C124.328 32.9012 124.509 33.5471 124.87 33.9883C125.234 34.4266 125.761 34.6457 126.451 34.6457C127.147 34.6457 127.673 34.4266 128.028 33.9883C128.383 33.55 128.561 32.904 128.561 32.0504C128.561 31.2053 128.383 30.5651 128.028 30.1297C127.676 29.6914 127.153 29.4723 126.46 29.4723C125.763 29.4723 125.234 29.6928 124.87 30.134C124.509 30.5723 124.328 31.2111 124.328 32.0504Z" fill="#333333"/>
<path d="M135.541 29.4809C134.851 29.4809 134.305 29.7115 133.904 30.1727C133.506 30.631 133.307 31.2598 133.307 32.059C133.307 32.8811 133.499 33.5171 133.883 33.9668C134.269 34.4137 134.819 34.6371 135.533 34.6371C135.971 34.6371 136.471 34.5583 137.032 34.4008V35.041C136.597 35.2043 136.06 35.2859 135.421 35.2859C134.496 35.2859 133.781 35.0052 133.277 34.4438C132.775 33.8823 132.525 33.0845 132.525 32.0504C132.525 31.403 132.645 30.8358 132.886 30.3488C133.129 29.8618 133.479 29.4866 133.934 29.223C134.392 28.9595 134.931 28.8277 135.55 28.8277C136.209 28.8277 136.784 28.948 137.277 29.1887L136.968 29.816C136.492 29.5926 136.017 29.4809 135.541 29.4809Z" fill="#333333"/>
<path d="M145.284 35.2H144.554V32.2437H141.245V35.2H140.515V28.918H141.245V31.5906H144.554V28.918H145.284V35.2Z" fill="#333333"/>
<path d="M152.626 35.2H149.124V28.918H152.626V29.5668H149.854V31.5906H152.458V32.2352H149.854V34.5469H152.626V35.2Z" fill="#333333"/>
<path d="M158.914 35.2L156.783 29.6313H156.749C156.789 30.0724 156.809 30.5966 156.809 31.2039V35.2H156.134V28.918H157.234L159.224 34.1H159.258L161.265 28.918H162.356V35.2H161.626V31.1523C161.626 30.6883 161.646 30.1841 161.686 29.6398H161.651L159.503 35.2H158.914Z" fill="#333333"/>
<path d="M166.195 35.2V28.918H166.926V35.2H166.195Z" fill="#333333"/>
<path d="M174.31 33.5285C174.31 34.0814 174.11 34.5125 173.709 34.8219C173.308 35.1313 172.763 35.2859 172.076 35.2859C171.331 35.2859 170.758 35.19 170.357 34.998V34.2934C170.615 34.4022 170.896 34.4882 171.199 34.5512C171.503 34.6142 171.804 34.6457 172.102 34.6457C172.589 34.6457 172.955 34.554 173.202 34.3707C173.448 34.1845 173.571 33.9267 173.571 33.5973C173.571 33.3796 173.527 33.202 173.438 33.0645C173.352 32.9241 173.206 32.7952 173 32.6777C172.796 32.5603 172.485 32.4271 172.067 32.2781C171.483 32.069 171.065 31.8212 170.812 31.5348C170.563 31.2483 170.439 30.8745 170.439 30.4133C170.439 29.9292 170.621 29.5439 170.984 29.2574C171.348 28.971 171.829 28.8277 172.428 28.8277C173.053 28.8277 173.627 28.9423 174.151 29.1715L173.923 29.8074C173.405 29.5897 172.901 29.4809 172.411 29.4809C172.024 29.4809 171.722 29.5639 171.504 29.7301C171.287 29.8962 171.178 30.1268 171.178 30.4219C171.178 30.6396 171.218 30.8186 171.298 30.959C171.378 31.0965 171.513 31.224 171.702 31.3414C171.894 31.456 172.186 31.5835 172.578 31.7238C173.237 31.9587 173.69 32.2108 173.936 32.4801C174.186 32.7493 174.31 33.0988 174.31 33.5285Z" fill="#333333"/>
<path d="M179.64 35.2H178.91V29.5668H176.921V28.918H181.63V29.5668H179.64V35.2Z" fill="#333333"/>
<path d="M185.422 32.5875V35.2H184.692V28.918H186.415C187.185 28.918 187.754 29.0655 188.12 29.3605C188.49 29.6556 188.675 30.0996 188.675 30.6926C188.675 31.5233 188.254 32.0848 187.411 32.377L189.117 35.2H188.254L186.733 32.5875H185.422ZM185.422 31.9602H186.423C186.939 31.9602 187.317 31.8585 187.558 31.6551C187.798 31.4488 187.918 31.1409 187.918 30.7313C187.918 30.3159 187.795 30.0165 187.549 29.8332C187.305 29.6499 186.913 29.5582 186.372 29.5582H185.422V31.9602Z" fill="#333333"/>
<path d="M193.842 32.059L195.518 28.918H196.308L194.211 32.7637V35.2H193.472V32.798L191.38 28.918H192.179L193.842 32.059Z" fill="#333333"/>
<path d="M207.635 35.2L206.853 33.202H204.335L203.562 35.2H202.822L205.306 28.8922H205.921L208.391 35.2H207.635ZM206.625 32.5445L205.895 30.598C205.8 30.3517 205.703 30.0495 205.603 29.6914C205.54 29.9664 205.449 30.2686 205.332 30.598L204.593 32.5445H206.625Z" fill="#333333"/>
<path d="M216.274 35.2H215.44L212.007 29.9277H211.973C212.019 30.5465 212.042 31.1137 212.042 31.6293V35.2H211.367V28.918H212.192L215.617 34.1688H215.651C215.645 34.0914 215.632 33.8436 215.612 33.4254C215.592 33.0043 215.585 32.7035 215.591 32.523V28.918H216.274V35.2Z" fill="#333333"/>
<path d="M225.128 31.9988C225.128 33.0358 224.846 33.8293 224.281 34.3793C223.72 34.9264 222.911 35.2 221.853 35.2H220.113V28.918H222.038C223.015 28.918 223.774 29.1887 224.316 29.7301C224.857 30.2715 225.128 31.0277 225.128 31.9988ZM224.354 32.0246C224.354 31.2053 224.148 30.588 223.736 30.1727C223.326 29.7573 222.716 29.5496 221.905 29.5496H220.844V34.5684H221.733C222.604 34.5684 223.259 34.3549 223.697 33.9281C224.135 33.4984 224.354 32.8639 224.354 32.0246Z" fill="#333333"/>
<path d="M235.823 35.2L233.692 29.6313H233.657C233.697 30.0724 233.717 30.5966 233.717 31.2039V35.2H233.043V28.918H234.143L236.132 34.1H236.167L238.173 28.918H239.265V35.2H238.534V31.1523C238.534 30.6883 238.554 30.1841 238.594 29.6398H238.56L236.411 35.2H235.823Z" fill="#333333"/>
<path d="M246.606 35.2H243.104V28.918H246.606V29.5668H243.834V31.5906H246.438V32.2352H243.834V34.5469H246.606V35.2Z" fill="#333333"/>
<path d="M255.129 31.9988C255.129 33.0358 254.847 33.8293 254.282 34.3793C253.721 34.9264 252.912 35.2 251.855 35.2H250.114V28.918H252.039C253.016 28.918 253.775 29.1887 254.317 29.7301C254.858 30.2715 255.129 31.0277 255.129 31.9988ZM254.355 32.0246C254.355 31.2053 254.149 30.588 253.737 30.1727C253.327 29.7573 252.717 29.5496 251.906 29.5496H250.845V34.5684H251.734C252.605 34.5684 253.26 34.3549 253.698 33.9281C254.136 33.4984 254.355 32.8639 254.355 32.0246Z" fill="#333333"/>
<path d="M258.646 35.2V28.918H259.376V35.2H258.646Z" fill="#333333"/>
<path d="M265.906 29.4809C265.215 29.4809 264.669 29.7115 264.268 30.1727C263.87 30.631 263.671 31.2598 263.671 32.059C263.671 32.8811 263.863 33.5171 264.247 33.9668C264.634 34.4137 265.184 34.6371 265.897 34.6371C266.335 34.6371 266.835 34.5583 267.397 34.4008V35.041C266.961 35.2043 266.424 35.2859 265.785 35.2859C264.86 35.2859 264.145 35.0052 263.641 34.4438C263.14 33.8823 262.889 33.0845 262.889 32.0504C262.889 31.403 263.009 30.8358 263.25 30.3488C263.494 29.8618 263.843 29.4866 264.299 29.223C264.757 28.9595 265.295 28.8277 265.914 28.8277C266.573 28.8277 267.149 28.948 267.642 29.1887L267.332 29.816C266.857 29.5926 266.381 29.4809 265.906 29.4809Z" fill="#333333"/>
<path d="M270.879 35.2V28.918H271.61V35.2H270.879Z" fill="#333333"/>
<path d="M280.356 35.2H279.523L276.089 29.9277H276.055C276.101 30.5465 276.124 31.1137 276.124 31.6293V35.2H275.449V28.918H276.274L279.699 34.1688H279.733C279.727 34.0914 279.714 33.8436 279.694 33.4254C279.674 33.0043 279.667 32.7035 279.673 32.523V28.918H280.356V35.2Z" fill="#333333"/>
<path d="M287.697 35.2H284.195V28.918H287.697V29.5668H284.926V31.5906H287.53V32.2352H284.926V34.5469H287.697V35.2Z" fill="#333333"/>
<path d="M21.422 27.5792C24.8603 27.5792 27.6477 24.7994 27.6477 21.3703C27.6477 17.9413 24.8603 15.1615 21.422 15.1615C17.9837 15.1615 15.1964 17.9413 15.1964 21.3703C15.1964 24.7994 17.9837 27.5792 21.422 27.5792Z" fill="#333333"/>
<path d="M32.0311 8.06281C31.5304 8.69092 31.5944 9.59435 32.176 10.1492C36.148 13.9409 37.9797 19.7174 36.4566 25.3881C36.4251 25.5054 36.3925 25.6216 36.3579 25.7378C36.1312 26.503 36.5384 27.3133 37.2827 27.6054C38.1382 27.9414 39.0923 27.4672 39.3516 26.5868C39.3904 26.4559 39.4272 26.324 39.4629 26.1911C41.2924 19.3813 39.0892 12.4439 34.3152 7.89427C33.6581 7.26826 32.5979 7.352 32.0322 8.06177L32.0311 8.06281Z" fill="#333333"/>
<path d="M4.56098 18.861C5.35244 18.9793 6.11136 18.481 6.29925 17.7043C6.32759 17.587 6.35803 17.4698 6.38952 17.3525C7.91261 11.6828 12.3958 7.59278 17.7366 6.28946C18.5186 6.09893 19.0266 5.34834 18.908 4.55483V4.55379C18.7737 3.65664 17.8982 3.0547 17.0154 3.27035C10.5977 4.83015 5.21178 9.73987 3.38114 16.5496C3.34545 16.6826 3.31186 16.8145 3.27932 16.9474C3.06204 17.8383 3.65091 18.726 4.56098 18.861Z" fill="#333333"/>
<path d="M27.6728 37.1882C27.3768 36.4386 26.556 36.0461 25.7802 36.2722C23.1351 37.0448 20.2505 37.1275 17.3933 36.3633C14.5361 35.6001 12.0788 34.0895 10.1747 32.1016C9.61622 31.5185 8.7093 31.4494 8.07634 31.9508L8.07529 31.9519C7.36571 32.514 7.27753 33.5682 7.90314 34.2235C10.1904 36.6218 13.1473 38.4423 16.5882 39.3614C20.028 40.2806 23.5014 40.178 26.684 39.2432C27.5532 38.9877 28.0056 38.0309 27.6739 37.1903L27.6728 37.1882Z" fill="#333333"/>
<path d="M33.5121 38.3324C36.2136 38.3324 38.4036 36.1483 38.4036 33.4541C38.4036 30.7599 36.2136 28.5758 33.5121 28.5758C30.8106 28.5758 28.6206 30.7599 28.6206 33.4541C28.6206 36.1483 30.8106 38.3324 33.5121 38.3324Z" fill="#F5D010"/>
<path d="M4.89151 30.6841C7.59302 30.6841 9.78302 28.5 9.78302 25.8058C9.78302 23.1116 7.59302 20.9275 4.89151 20.9275C2.19 20.9275 0 23.1116 0 25.8058C0 28.5 2.19 30.6841 4.89151 30.6841Z" fill="#00ACD3"/>
<path d="M25.8537 9.75661C28.5552 9.75661 30.7452 7.57252 30.7452 4.87831C30.7452 2.18409 28.5552 0 25.8537 0C23.1522 0 20.9622 2.18409 20.9622 4.87831C20.9622 7.57252 23.1522 9.75661 25.8537 9.75661Z" fill="#EF413D"/>
</svg>
